<mxfile host="app.diagrams.net" modified="2023-05-24T19:17:33.323Z" agent="Mozilla/5.0 (Windows NT 10.0; Win64; x64) AppleWebKit/537.36 (KHTML, like Gecko) Chrome/113.0.0.0 Safari/537.36" version="21.3.3" etag="Rn3_qg1Jb-zL2rJOysHk" type="github">
  <diagram name="Page-1" id="KQqQkMhnp8F2_nxTqUGN">
    <mxGraphModel>
      <root>
        <mxCell id="0" />
        <mxCell id="1" parent="0" />
      </root>
    </mxGraphModel>
  </diagram>
</mxfile>
